<svg id="back" xmlns="http://www.w3.org/2000/svg" viewBox="0 0 500 500"><defs><style>.cls-1,.cls-3{fill:#fff;}.cls-2{stroke:#fff;}.cls-2,.cls-3{stroke-miterlimit:10;stroke-width:4px;}.cls-3{stroke:#000;}</style></defs><title>grape</title><path d="M250,498A248,248,0,0,1,74.64,74.64,248,248,0,1,1,425.36,425.36,246.38,246.38,0,0,1,250,498Z"/><path class="cls-1" d="M250,4a246.06,246.06,0,0,1,95.75,472.67A246.06,246.06,0,0,1,154.25,23.33,244.37,244.37,0,0,1,250,4m0-4C111.93,0,0,111.93,0,250S111.93,500,250,500,500,388.07,500,250,388.07,0,250,0Z"/><ellipse class="cls-1" cx="183.9" cy="206.1" rx="51.19" ry="43.39"/><path d="M183.9,164.7c27.12,0,49.19,18.57,49.19,41.4S211,247.49,183.9,247.49s-49.2-18.57-49.2-41.39,22.07-41.4,49.2-41.4m0-4c-29.38,0-53.2,20.33-53.2,45.4s23.82,45.39,53.2,45.39,53.19-20.32,53.19-45.39-23.81-45.4-53.19-45.4Z"/><path class="cls-1" d="M318.87,249.49c-28.23,0-51.2-19.46-51.2-43.39s23-43.4,51.2-43.4,51.19,19.47,51.19,43.4S347.09,249.49,318.87,249.49Z"/><path d="M318.87,164.7c27.12,0,49.19,18.57,49.19,41.4S346,247.49,318.87,247.49s-49.2-18.57-49.2-41.39,22.07-41.4,49.2-41.4m0-4c-29.38,0-53.2,20.33-53.2,45.4s23.82,45.39,53.2,45.39,53.19-20.32,53.19-45.39-23.82-45.4-53.19-45.4Z"/><ellipse class="cls-1" cx="206.13" cy="321.28" rx="51.19" ry="43.39"/><path d="M206.13,279.88c27.12,0,49.19,18.57,49.19,41.4s-22.07,41.39-49.19,41.39-49.2-18.57-49.2-41.39,22.07-41.4,49.2-41.4m0-4c-29.38,0-53.2,20.33-53.2,45.4s23.82,45.39,53.2,45.39,53.19-20.32,53.19-45.39-23.81-45.4-53.19-45.4Z"/><ellipse class="cls-1" cx="236.3" cy="383.61" rx="51.19" ry="43.39"/><path d="M236.3,342.21c27.12,0,49.19,18.57,49.19,41.4S263.42,425,236.3,425s-49.2-18.57-49.2-41.39,22.07-41.4,49.2-41.4m0-4c-29.38,0-53.2,20.33-53.2,45.4S206.92,429,236.3,429s53.19-20.32,53.19-45.39-23.81-45.4-53.19-45.4Z"/><ellipse class="cls-1" cx="171.19" cy="272.49" rx="51.19" ry="43.39"/><path d="M171.19,231.1c27.13,0,49.2,18.57,49.2,41.39s-22.07,41.4-49.2,41.4S122,295.32,122,272.49s22.07-41.39,49.19-41.39m0-4c-29.37,0-53.19,20.32-53.19,45.39s23.82,45.4,53.19,45.4,53.2-20.33,53.2-45.4-23.82-45.39-53.2-45.39Z"/><path class="cls-1" d="M299.81,375.51c-28.23,0-51.19-19.47-51.19-43.39s23-43.4,51.19-43.4,51.2,19.47,51.2,43.4S328,375.51,299.81,375.51Z"/><path d="M299.81,290.72c27.13,0,49.2,18.57,49.2,41.4s-22.07,41.39-49.2,41.39-49.19-18.57-49.19-41.39,22.07-41.4,49.19-41.4m0-4c-29.38,0-53.19,20.33-53.19,45.4s23.81,45.39,53.19,45.39S353,357.19,353,332.12s-23.82-45.4-53.2-45.4Z"/><ellipse class="cls-1" cx="247.41" cy="321.28" rx="51.19" ry="43.39"/><path d="M247.41,279.88c27.13,0,49.2,18.57,49.2,41.4s-22.07,41.39-49.2,41.39-49.19-18.57-49.19-41.39,22.07-41.4,49.19-41.4m0-4c-29.38,0-53.19,20.33-53.19,45.4s23.81,45.39,53.19,45.39,53.2-20.32,53.2-45.39-23.82-45.4-53.2-45.4Z"/><ellipse class="cls-1" cx="206.13" cy="258.94" rx="51.19" ry="43.39"/><path d="M206.13,217.55c27.12,0,49.19,18.57,49.19,41.39s-22.07,41.4-49.19,41.4-49.2-18.57-49.2-41.4,22.07-41.39,49.2-41.39m0-4c-29.38,0-53.2,20.32-53.2,45.39s23.82,45.4,53.2,45.4,53.19-20.33,53.19-45.4-23.81-45.39-53.19-45.39Z"/><path class="cls-1" d="M326.81,315.89c-28.23,0-51.2-19.47-51.2-43.4s23-43.39,51.2-43.39S378,248.57,378,272.49,355,315.89,326.81,315.89Z"/><path d="M326.81,231.1c27.12,0,49.19,18.57,49.19,41.39s-22.07,41.4-49.19,41.4-49.2-18.57-49.2-41.4,22.07-41.39,49.2-41.39m0-4c-29.38,0-53.2,20.32-53.2,45.39s23.82,45.4,53.2,45.4S380,297.56,380,272.49s-23.82-45.39-53.19-45.39Z"/><path class="cls-2" d="M259.32,164.77c7,28.72,6.17-25.3,23.82-71.82,4.37-11.53-30.17-14.9-17.47,0s-41.28,72.22-41.28,72.22l-9.53,24,50.81-9.48Z"/><ellipse class="cls-1" cx="290.28" cy="263.01" rx="51.19" ry="43.39"/><path d="M290.28,221.62c27.13,0,49.2,18.56,49.2,41.39s-22.07,41.39-49.2,41.39S241.09,285.83,241.09,263s22.07-41.39,49.19-41.39m0-4c-29.37,0-53.19,20.32-53.19,45.39s23.82,45.39,53.19,45.39,53.2-20.32,53.2-45.39-23.82-45.39-53.2-45.39Z"/><ellipse class="cls-1" cx="247.41" cy="206.1" rx="51.19" ry="43.39"/><path d="M247.41,164.7c27.13,0,49.2,18.57,49.2,41.4s-22.07,41.39-49.2,41.39-49.19-18.57-49.19-41.39,22.07-41.4,49.19-41.4m0-4c-29.38,0-53.19,20.33-53.19,45.4s23.81,45.39,53.19,45.39,53.2-20.32,53.2-45.39-23.82-45.4-53.2-45.4Z"/><path class="cls-3" d="M275.68,116.66"/></svg>