<svg id="back" xmlns="http://www.w3.org/2000/svg" viewBox="0 0 500 500"><defs><style>.cls-1,.cls-2{fill:#fff;}.cls-2{stroke:#000;}.cls-2,.cls-3{stroke-miterlimit:10;stroke-width:4px;}.cls-3{stroke:#fff;}</style></defs><title>Artboard 1</title><path d="M250,498A248,248,0,0,1,74.64,74.64,248,248,0,1,1,425.36,425.36,246.38,246.38,0,0,1,250,498Z"/><path class="cls-1" d="M250,4a246.06,246.06,0,0,1,95.75,472.67A246.06,246.06,0,0,1,154.25,23.33,244.37,244.37,0,0,1,250,4m0-4C111.93,0,0,111.93,0,250S111.93,500,250,500,500,388.07,500,250,388.07,0,250,0Z"/><path class="cls-2" d="M183.14,147.36c6.71-33.56,35.23,0,35.23,0s177.82,41.93,132.52,203c0,0-1.68,31.87-10.06,36.9s-47-1.67-47-1.67-48.65,15.09-115.76-55.36S168,164.13,168,164.13Z"/><path class="cls-2" d="M193.2,100.38c-15.1-6.71-5,31.88-5,31.88l6.71-1.68s-3.35-26.84,0-26.84S193.2,100.38,193.2,100.38Z"/><path class="cls-3" d="M184.82,100.38s-30.2,45.3-53.69,47-16.77-23.49-16.77-23.49,18.45-55.36,38.58-40.26c0,0,16.78-3.36,18.45,5S184.82,100.38,184.82,100.38Z"/></svg>