<svg id="back" xmlns="http://www.w3.org/2000/svg" viewBox="0 0 500 500"><defs>
	<style>
			.cls-1,.cls-2{fill:#fff;}.cls-2{stroke:#000;}.cls-2,.cls-3{stroke-miterlimit:10;stroke-width:4px;}.cls-3{stroke:#fff;}
		#apple {
	cursor: pointer;
	}

	#apple:hover {
	fill: red;
	}

	#apple:hover {
	fill: red;
	}


</style></defs><title>apple</title><path d="M250,498A248,248,0,0,1,74.64,74.64,248,248,0,1,1,425.36,425.36,246.38,246.38,0,0,1,250,498Z"/><path class="cls-1" d="M250,4a246.06,246.06,0,0,1,95.75,472.67A246.06,246.06,0,0,1,154.25,23.33,244.37,244.37,0,0,1,250,4m0-4C111.93,0,0,111.93,0,250S111.93,500,250,500,500,388.07,500,250,388.07,0,250,0Z"/><path class="cls-2" d="M229.11,180.77c-33.06-6.57-71.93-9.6-92,26-38,67.13,16,201.4,52.53,199.94S229,392.08,229,392.08s13.13-14.59,24.81,2.92,45.24,11.68,45.24,11.68,35-11.68,35-39.41c0,0,54-217.45-40.86-185.34C293.23,181.93,238,182.52,229.11,180.77Z"/><path class="cls-2" d="M253.83,144s17.51-2.91,19,0-9.49,38-9.49,38H236.76S259.66,160,253.83,144Z"/><path class="cls-3" d="M272.8,142.52S283,104.58,304.91,125,272.8,142.52,272.8,142.52Z"/></svg>