<svg id="back" xmlns="http://www.w3.org/2000/svg" viewBox="0 0 500 500"><defs><style>.cls-1,.cls-2{fill:#fff;}.cls-2{stroke:#000;}.cls-2,.cls-3{stroke-miterlimit:10;stroke-width:4px;}.cls-3{stroke:#fff;}</style></defs><title>bannana</title><path d="M250,498A248,248,0,0,1,74.64,74.64,248,248,0,1,1,425.36,425.36,246.38,246.38,0,0,1,250,498Z"/><path class="cls-1" d="M250,4a246.06,246.06,0,0,1,95.75,472.67A246.06,246.06,0,0,1,154.25,23.33,244.37,244.37,0,0,1,250,4m0-4C111.93,0,0,111.93,0,250S111.93,500,250,500,500,388.07,500,250,388.07,0,250,0Z"/><path class="cls-2" d="M395.52,166S363.79,110.57,375.88,112s33.25,0,33.25,0-6.05,53.93,0,53.93"/><path class="cls-2" d="M416.33,71"/><path class="cls-2" d="M409,166.56l-22-10.8S228.42,395.82,68.25,354.15c0,0-51.38,7.26,18.28,46.85L338,372l71-147V166.56"/><path class="cls-2" d="M428.77,166H395.52s-84.63,246.36-293.2,209.91c0,0-40.8-2.14,0,29.93S460.51,507.07,428.77,166Z"/><path class="cls-3" d="M116.07,350"/></svg>