<svg xmlns="http://www.w3.org/2000/svg" viewBox="0 0 500 500"><defs><style>.cls-1,.cls-2{fill:#fff;}.cls-2{stroke:#000;}.cls-2,.cls-3{stroke-miterlimit:10;stroke-width:4px;}.cls-3{stroke:#fff;}</style></defs><title>cherry</title><g id="back"><path d="M250,498A248,248,0,0,1,74.64,74.64,248,248,0,1,1,425.36,425.36,246.38,246.38,0,0,1,250,498Z"/><path class="cls-1" d="M250,4a246.06,246.06,0,0,1,95.75,472.67A246.06,246.06,0,0,1,154.25,23.33,244.37,244.37,0,0,1,250,4m0-4C111.93,0,0,111.93,0,250S111.93,500,250,500,500,388.07,500,250,388.07,0,250,0Z"/></g><g id="Layer_2" data-name="Layer 2"><path class="cls-2" d="M290,286"/><path class="cls-2" d="M267,112"/><path class="cls-2" d="M165.31,280.45"/><path class="cls-2" d="M266,286"/><path class="cls-2" d="M191.47,282.67"/><circle class="cls-1" cx="281" cy="345" r="63"/><path d="M281,284a61,61,0,1,1-61,61,61.06,61.06,0,0,1,61-61m0-4a65,65,0,1,0,65,65,65,65,0,0,0-65-65Z"/><circle class="cls-1" cx="173" cy="345" r="63"/><path d="M173,284a61,61,0,1,1-61,61,61.06,61.06,0,0,1,61-61m0-4a65,65,0,1,0,65,65,65,65,0,0,0-65-65Z"/><path class="cls-3" d="M173,280s89.74-137.75,65-146c-3-1-25-10-25-10S146,40,103,88s99,44,99,44l11-3,30,5c6-7,18,12,18,12s-70,137-75.76,136.67"/><path class="cls-3" d="M281,280,254.92,157.83,261,146s26.71,135.34,34.35,136.67"/><path class="cls-2" d="M160,290s2,12,26,6"/><path class="cls-2" d="M275,298s18,8,20,0"/></g></svg>