<svg id="back" xmlns="http://www.w3.org/2000/svg" viewBox="0 0 500 500"><defs><style>.cls-1{fill:#fff;}</style></defs><title>coconut</title><path d="M250,498A248,248,0,0,1,74.64,74.64,248,248,0,1,1,425.36,425.36,246.38,246.38,0,0,1,250,498Z"/><path class="cls-1" d="M250,4a246.06,246.06,0,0,1,95.75,472.67A246.06,246.06,0,0,1,154.25,23.33,244.37,244.37,0,0,1,250,4m0-4C111.93,0,0,111.93,0,250S111.93,500,250,500,500,388.07,500,250,388.07,0,250,0Z"/><circle class="cls-1" cx="250" cy="250" r="146"/><path d="M250,106a144,144,0,1,1-101.82,42.18A143,143,0,0,1,250,106m0-4A148,148,0,1,0,398,250,148,148,0,0,0,250,102Z"/><circle cx="281.5" cy="165.5" r="11.5"/><path class="cls-1" d="M281.5,156a9.5,9.5,0,1,1-9.5,9.5,9.51,9.51,0,0,1,9.5-9.5m0-4A13.5,13.5,0,1,0,295,165.5,13.49,13.49,0,0,0,281.5,152Z"/><circle cx="318.5" cy="182.5" r="11.5"/><path class="cls-1" d="M318.5,173a9.5,9.5,0,1,1-9.5,9.5,9.51,9.51,0,0,1,9.5-9.5m0-4A13.5,13.5,0,1,0,332,182.5,13.49,13.49,0,0,0,318.5,169Z"/><circle cx="289.5" cy="192.5" r="11.5"/><path class="cls-1" d="M289.5,183a9.5,9.5,0,1,1-9.5,9.5,9.51,9.51,0,0,1,9.5-9.5m0-4A13.5,13.5,0,1,0,303,192.5,13.49,13.49,0,0,0,289.5,179Z"/></svg>