<svg xmlns="http://www.w3.org/2000/svg" viewBox="0 0 500 500"><defs><style>.cls-1,.cls-3{fill:#fff;}.cls-2{stroke:#fff;}.cls-2,.cls-3{stroke-miterlimit:10;stroke-width:4px;}.cls-3{stroke:#000;}</style></defs><title>Artboard 1</title><g id="back"><path d="M250,498A248,248,0,0,1,74.64,74.64,248,248,0,1,1,425.36,425.36,246.38,246.38,0,0,1,250,498Z"/><path class="cls-1" d="M250,4a246.06,246.06,0,0,1,95.75,472.67A246.06,246.06,0,0,1,154.25,23.33,244.37,244.37,0,0,1,250,4m0-4C111.93,0,0,111.93,0,250S111.93,500,250,500,500,388.07,500,250,388.07,0,250,0Z"/></g><g id="Layer_1" data-name="Layer 1"><polygon class="cls-2" points="216 68.92 235 18 283 68 248 99 211 102 216 68.92"/><path class="cls-2" d="M275.12,98.74s-14.21-15.47-22.54-28.56-26.73,28.56-26.73,28.56L216,122l23.72,19.58L251,142l29-33,3-7Z"/><path class="cls-2" d="M235,81.23s-43.15-33.66-69.33-21.76l23.8,33.32"/><path class="cls-2" d="M258.53,76.13s64.26-58.31,77.34-38.08c0,0-10.7,0-10.7,6s-8.33,23.8-8.33,23.8L283,102s-24.94-16.74-24.47-25.87"/><path class="cls-2" d="M246.63,146.22c7.14-18-14.28-42.72-28.56-54.62s-47.6-8.33-58.31,0-7.14,17.85-7.14,17.85,33.32-17.85,39.27,23.8"/><path class="cls-2" d="M231.51,146.22s-49.14-61.76-78.89-26.06c0,0,32.94,14.36,54.55,31"/><path class="cls-2" d="M309.9,105.56S327.55,60.66,343,67.8c0,0-7.14-28.56-47.59,9.52s-48.79,68.9-48.79,68.9L289,137l21-31"/><path class="cls-2" d="M335.87,98.74S302.56,124.39,297.8,161l-39-13.65s25.12-39.51,71.61-47.75q2.67-.48,5.45-.81"/><path class="cls-3" d="M243.54,469.74C94.73,469.74,144,251,144,251s20.47-113.33,104.47-109.39l5.62.27c78.37,2.22,97.75,109.44,97.75,109.44S400.2,466,256.41,470Z"/><line class="cls-3" x1="144.3" y1="251.05" x2="243.06" y2="141.58"/><line class="cls-3" x1="141.1" y1="380" x2="316.84" y2="174.18"/><path class="cls-3" d="M349,239.33c1.17,2.2-173.08,207.51-173.08,207.51"/><line class="cls-3" x1="359.29" y1="343.08" x2="262.44" y2="470"/><line class="cls-3" x1="235.04" y1="141.95" x2="359.66" y2="315.72"/><line class="cls-3" x1="332.19" y1="433.86" x2="168.91" y2="187.78"/><line class="cls-3" x1="141.1" y1="272.77" x2="265.41" y2="466.11"/></g></svg>