<svg id="back" xmlns="http://www.w3.org/2000/svg" viewBox="0 0 500 500"><defs><style>.cls-1,.cls-2{fill:#fff;}.cls-2{stroke:#000;}.cls-2,.cls-3{stroke-miterlimit:10;stroke-width:4px;}.cls-3{stroke:#fff;}</style></defs><title>strawberry</title><path d="M250,498A248,248,0,0,1,74.64,74.64,248,248,0,1,1,425.36,425.36,246.38,246.38,0,0,1,250,498Z"/><path class="cls-1" d="M250,4a246.06,246.06,0,0,1,95.75,472.67A246.06,246.06,0,0,1,154.25,23.33,244.37,244.37,0,0,1,250,4m0-4C111.93,0,0,111.93,0,250S111.93,500,250,500,500,388.07,500,250,388.07,0,250,0Z"/><path class="cls-2" d="M221.22,152.78s125.13-31.28,148.59,86c0,0,6.52,13,0,36.49S308.55,382.18,196.46,393.91,195.15,141.05,221.22,152.78Z"/><path class="cls-3" d="M260,159s-78,0-80,5,27-29,70-36-15-13-15-13,29-14,51,12,31,11,31,11l20-23s20-5,17,19l-15,15s44,25,37,45c0,0-11-15-20-11,0,0,34,37,23,53s-21-30-21-30-47,5-56,19-9-57-18-53S260,159,260,159Z"/><path class="cls-2" d="M219,212s14-10,9,6S208,225,219,212Z"/><path class="cls-2" d="M270.5,233.47s14-10,9,6S259.5,246.47,270.5,233.47Z"/><path class="cls-2" d="M326.5,257.47s14-10,9,6S315.5,270.47,326.5,257.47Z"/><path class="cls-2" d="M218.5,272.47s14-10,9,6S207.5,285.47,218.5,272.47Z"/><path class="cls-2" d="M277.5,293.47s14-10,9,6S266.5,306.47,277.5,293.47Z"/><path class="cls-2" d="M218.5,332.47s14-10,9,6S207.5,345.47,218.5,332.47Z"/><path class="cls-2" d="M164.5,311.47s14-10,9,6S153.5,324.47,164.5,311.47Z"/><path class="cls-2" d="M174.5,248.47s14-10,9,6S163.5,261.47,174.5,248.47Z"/><path class="cls-2" d="M256.5,187.47s14-10,9,6S245.5,200.47,256.5,187.47Z"/></svg>