<svg id="back" xmlns="http://www.w3.org/2000/svg" viewBox="0 0 500 500"><defs><style>.cls-1,.cls-3{fill:#fff;}.cls-2{stroke:#fff;}.cls-2,.cls-3{stroke-miterlimit:10;stroke-width:4px;}.cls-3{stroke:#000;}</style></defs><title>watermelon</title><path d="M250,498A248,248,0,0,1,74.64,74.64,248,248,0,1,1,425.36,425.36,246.38,246.38,0,0,1,250,498Z"/><path class="cls-1" d="M250,4a246.06,246.06,0,0,1,95.75,472.67A246.06,246.06,0,0,1,154.25,23.33,244.37,244.37,0,0,1,250,4m0-4C111.93,0,0,111.93,0,250S111.93,500,250,500,500,388.07,500,250,388.07,0,250,0Z"/><path class="cls-2" d="M100.5,362.62c1,.89,2,1.77,3.07,2.64A180,180,0,0,0,338.41,92.43Z"/><path class="cls-3" d="M338,92S496,460,101,364"/><path class="cls-2" d="M252,223s-24-29,12-12C264,211,296,238,252,223Z"/><path class="cls-2" d="M223,264.94s32,27-12,12c0,0-24-29,12-12"/><path class="cls-2" d="M239,318.82s32,26.41-12,11.74c0,0-24-28.36,12-11.74"/><path class="cls-2" d="M171,318.94s32,27-12,12c0,0-24-29,12-12"/><path class="cls-2" d="M316,154.94s32,27-12,12c0,0-24-29,12-12"/><path class="cls-2" d="M280,264.94s32,27-12,12c0,0-24-29,12-12"/><path class="cls-2" d="M320,206.94s32,27-12,12c0,0-24-29,12-12"/></svg>